<?xml version="1.0" standalone="no"?>
<!DOCTYPE svg PUBLIC "-//W3C//DTD SVG 20010904//EN"
 "http://www.w3.org/TR/2001/REC-SVG-20010904/DTD/svg10.dtd">
<svg version="1.0" xmlns="http://www.w3.org/2000/svg"
 width="900.000000pt" height="900.000000pt" viewBox="0 0 900.000000 900.000000"
 preserveAspectRatio="xMidYMid meet">

<g transform="translate(0.000000,900.000000) scale(0.100000,-0.100000)"
 fill="#000000" stroke="none">
<polygon fill="#ffffff" points="5685,8549 5369,8608 5320,8603 5320,8603 4906,8485 4690,8385 4480,8288 4335,8223 4265,8189 4175,8147 4010,8073 3570,7870 3343,7764 3246,7720 3178,7689 3040,7625 2820,7525 2570,7410 1800,7055 1400,6873 1344,6839 1330,2175 1486,1753 2492,1355 2868,730 3128,467 3232,412 3455,334 4092,414 4333,525 4513,609 4600,649 4735,710 4870,773 5000,833 5180,915 5888,1241 5996,1290 6093,1334 6545,1543 6850,1683 7170,1830 7375,1924 7520,1991 7682,2104 7688,4469 7685,6795 7648,6895 7523,7151 7079,7495 6747,7559 6595,7541 6595,7541" />
<path d="M5320 8603 c-142 -14 -270 -51 -414 -118 -50 -23 -147 -68 -216 -100
-69 -32 -163 -75 -210 -97 -47 -22 -112 -51 -145 -65 -33 -14 -65 -29 -70 -34
-6 -4 -47 -23 -90 -42 -44 -19 -118 -52 -165 -74 -84 -40 -179 -84 -440 -203
-74 -34 -176 -82 -227 -106 -51 -24 -94 -44 -97 -44 -3 0 -34 -14 -68 -31 -35
-17 -97 -46 -138 -64 -41 -18 -140 -63 -220 -100 -80 -37 -192 -89 -250 -115
-92 -41 -420 -193 -770 -355 -160 -74 -346 -159 -400 -182 -25 -11 -50 -26
-56 -34 -13 -16 -27 -4562 -14 -4664 16 -138 80 -309 156 -422 222 -328 621
-486 1006 -398 89 20 191 54 200 67 1 2 5 307 8 678 l5 675 42 60 c23 33 73
103 111 155 64 89 642 900 776 1090 33 47 76 108 96 135 21 28 88 122 150 210
62 88 135 189 160 225 53 72 90 131 90 143 0 16 -32 5 -136 -47 -60 -29 -284
-140 -499 -246 -214 -106 -475 -235 -580 -287 -179 -90 -190 -94 -203 -76 -12
15 -13 136 -8 807 5 715 8 791 23 808 9 10 20 18 24 18 5 0 89 39 186 86 98
48 223 108 278 134 96 46 234 112 545 262 224 109 414 200 660 318 124 59 295
141 380 183 311 151 552 267 555 267 2 0 141 68 310 150 168 83 308 150 310
150 1 0 82 38 179 85 l176 86 0 107 c0 132 -21 263 -59 375 -89 261 -318 487
-586 576 -79 26 -279 64 -316 59 -8 0 -30 -3 -49 -5z"/>
<path fill="#CB4646" d="M6595 7541 c-94 -18 -221 -57 -230 -71 -2 -4 -7 -304 -11 -666 -6
-637 -6 -660 -26 -694 -17 -30 -300 -432 -394 -560 -18 -25 -82 -115 -143
-200 -60 -85 -126 -177 -146 -205 -32 -43 -159 -222 -338 -474 -28 -40 -72
-102 -97 -136 -25 -34 -63 -88 -85 -119 -22 -31 -69 -96 -104 -144 -67 -91
-88 -128 -78 -138 5 -5 334 155 1101 537 131 66 249 119 262 119 13 0 28 -9
34 -20 8 -15 10 -253 8 -811 l-3 -791 -30 -24 c-16 -13 -33 -24 -37 -24 -3 0
-117 -54 -253 -120 -136 -66 -248 -120 -250 -120 -1 0 -97 -45 -211 -101 -655
-317 -784 -379 -849 -409 -55 -26 -296 -142 -570 -275 -60 -30 -182 -88 -270
-130 -88 -43 -225 -109 -305 -147 -80 -39 -190 -92 -245 -118 -204 -98 -541
-261 -574 -278 l-33 -17 1 -145 c3 -214 46 -367 149 -530 39 -60 217 -241 260
-263 15 -7 61 -32 104 -55 74 -40 97 -48 223 -78 203 -47 424 -19 637 80 51
24 160 74 241 111 82 36 163 74 180 84 18 9 57 27 87 40 30 13 91 40 135 61
44 21 105 49 135 63 30 14 89 41 130 60 41 18 122 56 180 82 388 177 556 254
708 326 57 27 105 49 108 49 2 0 46 20 97 44 93 44 271 126 452 209 55 25 192
88 305 140 113 52 257 118 320 147 63 29 156 71 205 94 50 23 115 53 145 67
136 59 154 72 162 113 5 22 7 1086 6 2365 l-3 2326 -37 100 c-51 138 -66 169
-125 256 -100 147 -275 283 -444 344 -96 35 -254 65 -332 64 -34 -1 -102 -9
-152 -18z"/>
</g>
</svg>
